<svg height="48" width="48" xmlns="http://www.w3.org/2000/svg" viewBox="0 0 418.31 374.97"><path d="M409.69,150.48,227.56,334.07,263,369.54l34.61-36c-12.05-15.38-12.06-15.39,1.94-29.8,5.55-5.72,11.35-11.21,16.78-17,6.75-7.24,13.31-7.66,20.49-.57,12.81,12.67,25.77,25.18,38.74,37.69,6.32,6.11,6.58,12.2.34,18.43q-52.12,52-104.22,104c-6.25,6.26-11.77,6.63-18.21.19q-53-53-106.18-105.63c-5.52-5.49-5.52-10.67.09-16.22Q227,245.86,306.48,167c27.38-27.19,54.84-54.31,81.78-81.93,4.93-5,9.76-7.25,16.4-7.18,17.62.18,35.25.35,52.87.17,9.24-.1,12.52,4.2,12.51,13.09q-.18,152.3.11,304.6c0,6.3-3,10.23-6.83,14.05-11.49,11.62-23.2,23-34.76,34.58-3.62,3.61-7.15,7.68-12.93,5.66-6.65-2.34-5.91-8.23-5.91-13.74q0-136.56,0-273.13Z" transform="translate(-51.84 -76.19)" style="fill:#151414"/><path d="M112.05,263.81c0,43.22-.16,86.44-.06,129.66a20.33,20.33,0,0,1-6.53,15.62c-12.3,12-24.41,24.21-36.49,36.43-3.39,3.43-6.9,6.47-12,4.79-5.81-1.89-4.9-7-4.9-11.57Q52,265,51.84,91.28c0-10,4.07-13.83,13.43-13.49,2.09.08,4.19.09,6.29.14,18.43.5,38.87-5.47,54.76,2.22,15.72,7.61,27.07,24.39,40.14,37.36,20.54,20.37,40.73,41.1,61.45,61.29,8.16,7.95,8.68,14.6-.34,22.52a175,175,0,0,0-19.93,20.08c-8.09,9.84-14.63,8.92-22.66.73-21.73-22.14-44-43.77-65.88-65.76-2.88-2.89-3.23-2.3-7-8.67C112.05,186.93,112.07,224.58,112.05,263.81Z" transform="translate(-51.84 -76.19)" style="fill:#151414"/></svg>